<svg viewBox="0 0 100 100" xmlns="http://www.w3.org/2000/svg">
  
  <!-- Main gear centered in square -->
  <g transform="translate(50, 50)">
    <!-- Gear body -->
    <circle cx="0" cy="0" r="35" fill="#dc2626" stroke="#000" stroke-width="2"/>
    
    <!-- Gear teeth - simplified for small size -->
    <g fill="#dc2626" stroke="#000" stroke-width="1">
      <!-- 8 teeth for better visibility at small sizes -->
      <rect x="-3" y="-42" width="6" height="12" transform="rotate(0)"/>
      <rect x="-3" y="-42" width="6" height="12" transform="rotate(45)"/>
      <rect x="-3" y="-42" width="6" height="12" transform="rotate(90)"/>
      <rect x="-3" y="-42" width="6" height="12" transform="rotate(135)"/>
      <rect x="-3" y="-42" width="6" height="12" transform="rotate(180)"/>
      <rect x="-3" y="-42" width="6" height="12" transform="rotate(225)"/>
      <rect x="-3" y="-42" width="6" height="12" transform="rotate(270)"/>
      <rect x="-3" y="-42" width="6" height="12" transform="rotate(315)"/>
    </g>
    
    <!-- Center hole -->
    <circle cx="0" cy="0" r="10" fill="#fff" stroke="#000" stroke-width="2"/>
    
    <!-- Inner spokes - simplified -->
    <g stroke="#000" stroke-width="2">
      <line x1="0" y1="-10" x2="0" y2="-25"/>
      <line x1="0" y1="10" x2="0" y2="25"/>
      <line x1="-10" y1="0" x2="-25" y2="0"/>
      <line x1="10" y1="0" x2="25" y2="0"/>
    </g>
  </g>

</svg>